<?xml version="1.0" standalone="no"?>
<!DOCTYPE svg PUBLIC "-//W3C//DTD SVG 20010904//EN"
 "http://www.w3.org/TR/2001/REC-SVG-20010904/DTD/svg10.dtd">
<svg version="1.0" xmlns="http://www.w3.org/2000/svg"
 width="260.000000pt" height="260.000000pt" viewBox="0 0 260.000000 260.000000"
 preserveAspectRatio="xMidYMid meet">
<metadata>
Created by potrace 1.11, written by Peter Selinger 2001-2013
</metadata>
<g transform="translate(0.000000,260.000000) scale(0.100000,-0.100000)"
fill="#000000" stroke="none">
<path d="M1259 2506 c-2 -3 -27 -7 -54 -11 -385 -46 -734 -287 -918 -635 -36
-68 -95 -228 -102 -278 -2 -15 -6 -38 -9 -52 -29 -134 -24 -405 10 -542 44
-177 127 -348 229 -468 213 -252 489 -399 815 -435 97 -10 280 -5 360 10 14 3
40 8 59 11 173 29 407 156 568 308 l78 75 -41 43 c-187 195 -212 218 -228 212
-9 -3 -16 -9 -16 -13 0 -8 -93 -81 -163 -128 -108 -73 -219 -117 -322 -128
-307 -33 -518 36 -716 234 -162 163 -242 358 -242 596 0 60 13 174 24 201 4
13 7 24 5 24 -11 0 49 142 81 195 56 92 99 141 186 210 107 86 234 145 367
170 104 21 338 11 435 -18 131 -39 219 -89 345 -197 l67 -58 29 33 c16 18 70
76 119 130 50 53 92 101 94 107 4 11 -176 188 -193 188 -2 0 -28 16 -57 36
-176 119 -402 181 -669 183 -75 1 -138 0 -141 -3z"/>
<path d="M1239 1945 c-211 -37 -409 -199 -492 -402 -37 -90 -50 -161 -49 -263
1 -57 7 -125 13 -140 1 -3 1 -8 0 -12 -1 -12 36 -113 59 -158 35 -69 59 -100
131 -170 79 -77 151 -122 251 -158 66 -23 87 -26 228 -26 161 -1 174 1 267 36
172 64 317 208 388 385 33 80 36 102 40 232 5 203 -46 334 -190 489 -77 84
-233 169 -345 188 -70 11 -230 11 -301 -1z m257 -246 c3 -5 15 -9 27 -9 31 0
115 -51 162 -98 42 -42 78 -105 100 -172 5 -17 16 -101 17 -135 7 -200 -128
-381 -317 -423 -46 -10 -154 -9 -204 2 -144 33 -267 164 -298 316 -12 60 -8
191 8 238 7 20 14 39 14 42 4 26 47 91 87 131 49 50 103 83 173 105 44 15 222
16 231 3z"/>
</g>
</svg>
